<?xml version="1.0" encoding="UTF-8"?>
<svg version="1.1" xmlns="http://www.w3.org/2000/svg" width="272" height="265">
<path d="M0 0 C89.76 0 179.52 0 272 0 C272 87.45 272 174.9 272 265 C182.24 265 92.48 265 0 265 C0 177.55 0 90.1 0 0 Z " fill="#090705" transform="translate(0,0)"/>
<path d="M0 0 C2 2 2 2 2 5 C2.66 5 3.32 5 4 5 C4 5.66 4 6.32 4 7 C5.32 6.67 6.64 6.34 8 6 C8.33 7.32 8.66 8.64 9 10 C9.99 8.35 10.98 6.7 12 5 C14.60226495 8.90339743 14.07424485 12.47106423 14 17 C14.33 17.33 14.66 17.66 15 18 C15.79419815 23.29465434 13.94219534 26.49573795 11.28125 30.87890625 C9.88335979 33.08876858 9.88335979 33.08876858 8.6875 36 C7 38 7 38 3.1875 38.8125 C1.7926704 38.89439825 0.39658837 38.95759883 -1 39 C-2.60875 39.1546875 -2.60875 39.1546875 -4.25 39.3125 C-7 39 -7 39 -9.375 37.125 C-11 35 -11 35 -11 33 C-12.98 33 -14.96 33 -17 33 C-17 31.68 -17 30.36 -17 29 C-17.66 29 -18.32 29 -19 29 C-20.66251802 23.42567486 -21.18609365 19.6932495 -20 14 C-19.01 13.67 -18.02 13.34 -17 13 C-17.165 12.113125 -17.33 11.22625 -17.5 10.3125 C-17 7 -17 7 -15.359375 5.55859375 C-13.27767659 4.26716974 -11.18770882 3.10183875 -9 2 C-7.95972656 1.443125 -7.95972656 1.443125 -6.8984375 0.875 C-4.45157676 -0.25277121 -2.66357682 -0.28037651 0 0 Z " fill="#45290D" transform="translate(145,163)"/>
<path d="M0 0 C3.35914922 2.23943282 3.81681636 3.26842083 5 7 C5 7.99 5 8.98 5 10 C5.66 10 6.32 10 7 10 C7 10.66 7 11.32 7 12 C7.66 12 8.32 12 9 12 C8.93489583 13.98567708 8.86979167 15.97135417 8.8046875 17.95703125 C8.86745538 20.31359719 8.86745538 20.31359719 11 23 C11 25.375 11 25.375 10 28 C8.03814584 29.71140469 6.03697617 31.37873325 4 33 C3.566875 34.11375 3.566875 34.11375 3.125 35.25 C2 37 2 37 0.109375 37.46875 C-1.91876404 37.72404023 -3.96009786 37.86839341 -6 38 C-6 37.34 -6 36.68 -6 36 C-7.051875 36.04125 -8.10375 36.0825 -9.1875 36.125 C-12.77689079 36.00731506 -14.92653325 35.80792162 -18 34 C-18.8125 31.875 -18.8125 31.875 -19 30 C-19.66 30.33 -20.32 30.66 -21 31 C-21.33 28.03 -21.66 25.06 -22 22 C-22.99 22.99 -23.98 23.98 -25 25 C-25.33 20.71 -25.66 16.42 -26 12 C-25.34 12 -24.68 12 -24 12 C-23.67 10.68 -23.34 9.36 -23 8 C-22.34 8 -21.68 8 -21 8 C-20.34 6.35 -19.68 4.7 -19 3 C-18.34 3.33 -17.68 3.66 -17 4 C-17.33 4.66 -17.66 5.32 -18 6 C-17.278125 5.38125 -16.55625 4.7625 -15.8125 4.125 C-10.50327202 0.11358331 -6.50351724 -0.41958176 0 0 Z " fill="#4A2F13" transform="translate(149,50)"/>
<path d="M0 0 C2.11413837 0.3186184 2.11413837 0.3186184 4.9453125 0.25390625 C5.2753125 2.23390625 5.6053125 4.21390625 5.9453125 6.25390625 C6.6053125 6.25390625 7.2653125 6.25390625 7.9453125 6.25390625 C7.9453125 6.91390625 7.9453125 7.57390625 7.9453125 8.25390625 C9.2653125 8.25390625 10.5853125 8.25390625 11.9453125 8.25390625 C11.9453125 9.24390625 11.9453125 10.23390625 11.9453125 11.25390625 C12.9353125 11.58390625 13.9253125 11.91390625 14.9453125 12.25390625 C15.17673949 16.99815951 14.34292541 20.73221741 12.9453125 25.25390625 C12.59159752 26.91636666 12.24935928 28.58164896 11.9453125 30.25390625 C11.2853125 30.25390625 10.6253125 30.25390625 9.9453125 30.25390625 C9.6978125 30.87265625 9.4503125 31.49140625 9.1953125 32.12890625 C7.73902611 34.60459312 6.56718744 35.20515627 3.9453125 36.25390625 C3.6153125 35.59390625 3.2853125 34.93390625 2.9453125 34.25390625 C1.4603125 34.74890625 1.4603125 34.74890625 -0.0546875 35.25390625 C-2.1267219 35.01258497 -4.19014956 34.69150996 -6.2421875 34.31640625 C-7.32886719 34.12175781 -8.41554687 33.92710937 -9.53515625 33.7265625 C-10.78232422 33.49259766 -10.78232422 33.49259766 -12.0546875 33.25390625 C-11.7246875 32.26390625 -11.3946875 31.27390625 -11.0546875 30.25390625 C-12.3746875 29.92390625 -13.6946875 29.59390625 -15.0546875 29.25390625 C-15.0546875 28.59390625 -15.0546875 27.93390625 -15.0546875 27.25390625 C-15.7146875 27.25390625 -16.3746875 27.25390625 -17.0546875 27.25390625 C-20.63497778 11.29902042 -20.63497778 11.29902042 -19.0546875 3.25390625 C-17.51975229 1.25709084 -16.54564692 0.39192697 -14.109375 -0.29296875 C-9.27753369 -0.74324787 -4.80957945 -0.68092612 0 0 Z M-14.0546875 33.25390625 C-12.0546875 34.25390625 -12.0546875 34.25390625 -12.0546875 34.25390625 Z " fill="#3F2710" transform="translate(203.0546875,110.74609375)"/>
<path d="M0 0 C4.06724481 1.11930577 6.74952195 3.49429903 9.44140625 6.671875 C11.07365853 9.93637955 11.12404559 13.15754653 10.44140625 16.671875 C8.10450149 20.54699556 5.76640076 23.23021016 1.44140625 24.671875 C-3.08126089 25.18850926 -6.49098446 25.28518246 -10.49609375 22.984375 C-13.57978574 19.52690216 -14.35195819 16.88872888 -15.12109375 12.359375 C-14.42321954 7.78442186 -12.93160989 5.53039176 -9.75390625 2.23046875 C-6.48874157 -0.08768197 -3.93435336 -0.31234561 0 0 Z " fill="#FAE789" transform="translate(85.55859375,114.328125)"/>
<path d="M0 0 C1.66796875 1.46875 1.66796875 1.46875 3 3 C3.70125 3.350625 4.4025 3.70125 5.125 4.0625 C7 5 7 5 8 7 C8.16796875 9.0234375 8.16796875 9.0234375 8.1875 11.375 C8.20167969 12.14585938 8.21585938 12.91671875 8.23046875 13.7109375 C7.97076511 16.29036687 7.38976036 17.81872049 6 20 C1.40613891 23.37508162 -2.1875597 24.70914848 -7.9140625 24.46484375 C-11.33449571 23.70261238 -12.93765737 21.70682471 -15 19 C-17.00211808 14.99576385 -16.61704664 10.343764 -16 6 C-12.87923686 -0.50056196 -6.61829298 -1.46946608 0 0 Z " fill="#F9E888" transform="translate(146,115)"/>
<path d="M0 0 C4.19602152 0.02721155 5.36101088 0.08127352 8.8125 2.6875 C12.18971757 7.3720276 13.33554723 9.51952771 12.75 15.375 C11.45946426 18.68116631 9.96645827 21.60898758 6.8828125 23.55078125 C3.18893117 24.97827019 -0.35858387 24.93380197 -4.25 24.375 C-9.89028777 21.45413669 -9.89028777 21.45413669 -11.25 17.375 C-12.29656026 7.71674392 -12.29656026 7.71674392 -8.8125 3.25 C-7.966875 2.63125 -7.12125 2.0125 -6.25 1.375 C-4.53055699 -0.34444301 -2.34584777 0.08154016 0 0 Z " fill="#FAE989" transform="translate(199.25,114.625)"/>
<path d="M0 0 C4.77987456 3.31365537 4.77987456 3.31365537 6.09765625 5.94921875 C6.61278242 10.0407923 7.04132894 14.18511421 5.05078125 17.90625 C2.63735984 20.82365058 0.68820377 22.75215977 -3.109375 23.22265625 C-10.17990886 23.49826926 -10.17990886 23.49826926 -14.02734375 20.57421875 C-15.90234375 17.94921875 -15.90234375 17.94921875 -15.90234375 15.94921875 C-16.56234375 15.94921875 -17.22234375 15.94921875 -17.90234375 15.94921875 C-18.48127807 10.39144928 -17.50010259 7.22935588 -14.32421875 2.6171875 C-10.78681334 -1.53246115 -4.8143705 -2.65927241 0 0 Z " fill="#F8E885" transform="translate(146.90234375,172.05078125)"/>
<path d="M0 0 C4.64521974 0.95104081 7.95286916 2.7403693 10.8046875 6.57421875 C11.85769555 9.82148379 11.77708779 12.31215498 10.8046875 15.57421875 C8.72396866 18.9397188 6.37487338 21.78912581 2.8046875 23.57421875 C-5.58628994 23.98023379 -5.58628994 23.98023379 -9.1953125 21.57421875 C-9.1953125 20.91421875 -9.1953125 20.25421875 -9.1953125 19.57421875 C-10.5153125 18.91421875 -11.8353125 18.25421875 -13.1953125 17.57421875 C-14.05227511 6.8717079 -14.05227511 6.8717079 -11.3828125 2.88671875 C-7.39339795 -0.0075624 -4.85116084 -0.29580249 0 0 Z " fill="#FBEB85" transform="translate(143.1953125,58.42578125)"/>
<path d="M0 0 C0 0.66 0 1.32 0 2 C0.69867188 1.97679688 1.39734375 1.95359375 2.1171875 1.9296875 C3.02726562 1.91164063 3.93734375 1.89359375 4.875 1.875 C6.23238281 1.84019531 6.23238281 1.84019531 7.6171875 1.8046875 C10 2 10 2 12 4 C11.979375 5.11375 11.95875 6.2275 11.9375 7.375 C12.00647597 11.37560615 12.63943374 12.02363385 15 15 C14.69210067 18.18162643 13.18229509 21.04426227 12 24 C11.87109375 24.64453125 11.7421875 25.2890625 11.609375 25.953125 C10.65802552 29.14868352 8.9113631 30.71075581 6.3671875 32.78515625 C1.51974347 35.27287092 -3.74635104 34.93076458 -9 34 C-12.83686308 31.34371018 -14.06237843 29.42021596 -15 25 C-16.28796166 22.97048465 -17.61558 20.96498322 -19 19 C-19.66 19.33 -20.32 19.66 -21 20 C-22.1369863 14.8398314 -22.1369863 14.8398314 -22 12 C-19.6875 9.125 -19.6875 9.125 -17 7 C-14.82093399 5.23022773 -14.82093399 5.23022773 -14.75 3 C-14 1 -14 1 -11.4375 -0.3125 C-7.22528008 -1.15494398 -4.21780382 -0.72720755 0 0 Z M-13.78125 10.77734375 C-15.60196341 14.09781148 -15.68497736 16.30112225 -15 20 C-13.43929903 24.05782253 -12.00539455 27.10270785 -8 29 C-3.73622338 29.57596982 -0.17145354 29.49461371 3.8125 27.8125 C7.84373425 24.47233448 9.76997692 22.42614313 10.625 17.125 C10.4266896 12.77043419 8.41911819 10.43476542 5.5078125 7.34765625 C2.23347025 4.42110683 -1.13696607 4.42399753 -5.37890625 4.4609375 C-9.48415602 5.30523626 -11.33122649 7.50101514 -13.78125 10.77734375 Z " fill="#3F2711" transform="translate(86,110)"/>
<path d="M0 0 C0.33 0.66 0.66 1.32 1 2 C1.61875 2.226875 2.2375 2.45375 2.875 2.6875 C6.15578499 4.7138672 6.67916229 7.43373819 8 11 C8.66 10.34 9.32 9.68 10 9 C10.33333333 11 10.66666667 13 11 15 C11.309375 15.969375 11.61875 16.93875 11.9375 17.9375 C12.00956357 21.46861475 11.60367963 21.88392334 9.375 24.4375 C8.80910156 25.015 8.24320313 25.5925 7.66015625 26.1875 C5.98904145 28.01196416 4.99295398 29.7769643 3.8125 31.9375 C2.09674653 34.44904702 1.34963008 34.92936253 -1.6875 35.54296875 C-4.60051513 35.62262151 -7.15266831 35.63274037 -10 35 C-10.66 34.01 -11.32 33.02 -12 32 C-13.98 32.495 -13.98 32.495 -16 33 C-16.495 31.515 -16.495 31.515 -17 30 C-16.67 29.34 -16.34 28.68 -16 28 C-16.66 28 -17.32 28 -18 28 C-18.33 26.35 -18.66 24.7 -19 23 C-19.66 23 -20.32 23 -21 23 C-23.24828052 18.50343896 -23.16682272 14.92127034 -23 10 C-22.34 10 -21.68 10 -21 10 C-20.896875 9.236875 -20.79375 8.47375 -20.6875 7.6875 C-19.91560751 4.67010209 -19.42886456 3.87235812 -17 2 C-14.2578125 1.26953125 -14.2578125 1.26953125 -11.125 0.8125 C-10.09632813 0.65394531 -9.06765625 0.49539062 -8.0078125 0.33203125 C-5.30443215 0.03360615 -2.71608477 -0.06514594 0 0 Z M-16 8.95703125 C-18.05894739 13.16339643 -17.80518428 17.47754831 -17 22 C-15.67763592 25.14673675 -14.13232397 27.43383802 -11 29 C-4.4949144 29.80816746 -0.27890566 28.87837967 5 25 C6.83826833 22.09907822 7.27307971 19.84752722 7.25 16.4375 C7.25515625 15.67308594 7.2603125 14.90867187 7.265625 14.12109375 C7.1229561 11.70017238 7.1229561 11.70017238 5 9 C3.35857037 7.9590934 1.69287785 6.95495674 0 6 C-0.33 5.67 -0.66 5.34 -1 5 C-6.95102789 4.1146305 -11.94917319 4.11215032 -16 8.95703125 Z " fill="#553C14" transform="translate(147,110)"/>
<path d="M0 0 C0.33 0.99 0.66 1.98 1 3 C1.66 3 2.32 3 3 3 C3 3.66 3 4.32 3 5 C4.32 5 5.64 5 7 5 C7 5.99 7 6.98 7 8 C7.99 8.33 8.98 8.66 10 9 C10.23101295 13.73576538 9.79712924 17.58886459 8 22 C5 24.3125 5 24.3125 2 26 C1.34 26.66 0.68 27.32 0 28 C-1.703125 27.66015625 -1.703125 27.66015625 -4 27 C-6.24707241 26.7801777 -8.49771238 26.59516013 -10.75 26.4375 C-11.92046875 26.35371094 -13.0909375 26.26992187 -14.296875 26.18359375 C-15.18890625 26.12300781 -16.0809375 26.06242187 -17 26 C-17 25.34 -17 24.68 -17 24 C-17.66 24 -18.32 24 -19 24 C-21.3992233 19.35150485 -21.19957409 15.08913926 -21 10 C-20.67 10 -20.34 10 -20 10 C-19.67 13.63 -19.34 17.26 -19 21 C-16.525 21.99 -16.525 21.99 -14 23 C-13.67 23.33 -13.34 23.66 -13 24 C-11.5653041 24.09894455 -10.12559603 24.12970735 -8.6875 24.125 C-7.90761719 24.12757813 -7.12773437 24.13015625 -6.32421875 24.1328125 C-4.04510096 24.0025772 -2.14761641 23.77709804 0 23 C1.24714403 20.59047977 1.24714403 20.59047977 2 18 C2.33 17.34 2.66 16.68 3 16 C3.50070321 12.62642666 3.50070321 12.62642666 3 9 C0.666508 6.16588845 0.666508 6.16588845 -2 4 C-2.33 3.34 -2.66 2.68 -3 2 C-2.01 2 -1.02 2 0 2 C0 1.34 0 0.68 0 0 Z " fill="#3D2413" transform="translate(208,114)"/>
<path d="M0 0 C0 0.66 0 1.32 0 2 C0.69867188 1.97679688 1.39734375 1.95359375 2.1171875 1.9296875 C3.02726562 1.91164063 3.93734375 1.89359375 4.875 1.875 C6.23238281 1.84019531 6.23238281 1.84019531 7.6171875 1.8046875 C10 2 10 2 12 4 C11.979375 5.11375 11.95875 6.2275 11.9375 7.375 C12.00647597 11.37560615 12.63943374 12.02363385 15 15 C14.27142914 19.33499663 12.60656507 23.46198228 10 27 C5.08427715 30.30258098 -0.27256358 30.30682695 -6 30 C-6 29.67 -6 29.34 -6 29 C-5.33613281 28.92523438 -4.67226562 28.85046875 -3.98828125 28.7734375 C2.1866455 27.89950313 2.1866455 27.89950313 7.125 24.375 C9.36528789 20.34248179 10.14656006 17.50562274 9 13 C7.23002108 9.98713148 5.17542377 7.58771189 2 6 C-0.82043726 5.72579082 -3.64053047 5.5538093 -6.46875 5.37890625 C-9 5 -9 5 -11 3 C-10.01 3 -9.02 3 -8 3 C-8 2.34 -8 1.68 -8 1 C-5.07175348 0.02391783 -3.04386724 -0.08226668 0 0 Z " fill="#472C12" transform="translate(86,110)"/>
<path d="M0 0 C0.33 0.66 0.66 1.32 1 2 C-4.625 3.125 -4.625 3.125 -8 2 C-8.33 2.99 -8.66 3.98 -9 5 C-9.66 5 -10.32 5 -11 5 C-11.33 9.29 -11.66 13.58 -12 18 C-10.4325 18.33 -8.865 18.66 -7.25 19 C-6.36828125 19.185625 -5.4865625 19.37125 -4.578125 19.5625 C-1.77856035 20.11153675 -1.77856035 20.11153675 2 20 C2 19.01 2 18.02 2 17 C3.875 14.9375 3.875 14.9375 6 13 C6.66 12.34 7.32 11.68 8 11 C8.34751969 13.91916538 8.53280018 16.13195476 6.95703125 18.69921875 C4.47164683 21.70937642 2.73680964 23.78482005 -1.20703125 24.2734375 C-8.27756511 24.54905051 -8.27756511 24.54905051 -12.125 21.625 C-14 19 -14 19 -14 17 C-14.66 17 -15.32 17 -16 17 C-16.57893432 11.44223053 -15.59775884 8.28013713 -12.421875 3.66796875 C-8.98332785 -0.36571156 -5.00172804 -0.23263851 0 0 Z " fill="#EFD890" transform="translate(145,171)"/>
<path d="M0 0 C4.19602152 0.02721155 5.36101088 0.08127352 8.8125 2.6875 C12.18971757 7.3720276 13.33554723 9.51952771 12.75 15.375 C11.46154288 18.67584118 9.9587179 21.59394288 6.90625 23.56640625 C4.45155641 24.48691635 2.61202 24.57682412 0 24.5 C-0.79921875 24.48195312 -1.5984375 24.46390625 -2.421875 24.4453125 C-3.02515625 24.42210937 -3.6284375 24.39890625 -4.25 24.375 C-4.25 24.045 -4.25 23.715 -4.25 23.375 C-2.88875 23.25125 -2.88875 23.25125 -1.5 23.125 C2.19152488 22.27310964 3.30595843 21.16819037 5.75 18.375 C6.41 18.045 7.07 17.715 7.75 17.375 C8.2183265 14.78894668 8.2183265 14.78894668 8.375 11.8125 C8.44976562 10.80058594 8.52453125 9.78867188 8.6015625 8.74609375 C8.65054688 7.96363281 8.69953125 7.18117188 8.75 6.375 C8.12996094 6.06820312 7.50992188 5.76140625 6.87109375 5.4453125 C5.4979194 4.75240316 4.14262612 4.0223313 2.8125 3.25 C0.33890178 2.20059469 -1.58953538 2.22719641 -4.25 2.375 C-4.58 3.035 -4.91 3.695 -5.25 4.375 C-6.24 4.375 -7.23 4.375 -8.25 4.375 C-8.25 6.355 -8.25 8.335 -8.25 10.375 C-8.58 10.375 -8.91 10.375 -9.25 10.375 C-9.58 12.355 -9.91 14.335 -10.25 16.375 C-9.26 16.375 -8.27 16.375 -7.25 16.375 C-7.25 18.025 -7.25 19.675 -7.25 21.375 C-8.24 21.045 -9.23 20.715 -10.25 20.375 C-11.79023355 15.75429934 -11.9053263 11.19481922 -11.25 6.375 C-8.8125 3.25 -8.8125 3.25 -6.25 1.375 C-4.53055699 -0.34444301 -2.34584777 0.08154016 0 0 Z " fill="#E8D08A" transform="translate(199.25,114.625)"/>
<path d="M0 0 C0.66 0.33 1.32 0.66 2 1 C1.67 1.66 1.34 2.32 1 3 C1.99 3.33 2.98 3.66 4 4 C2.7934375 4.8971875 2.7934375 4.8971875 1.5625 5.8125 C-1.22327984 7.80947276 -1.22327984 7.80947276 -2 11 C-0.42671571 16.01459884 -0.42671571 16.01459884 3.25 19.5625 C6.91807906 20.14605803 9.536434 19.22243506 13 18 C13.33 16.68 13.66 15.36 14 14 C15.32 13.67 16.64 13.34 18 13 C17.34 10.03 16.68 7.06 16 4 C19 6 19 6 19.50390625 7.91796875 C19.62496401 12.60693935 19.2139737 15.35214108 16.125 19 C13.07166211 22.18609172 11.70213069 22.96602593 7.125 23.1875 C3.92636109 23.15842146 1.72372251 22.81581501 -1 21 C-1 20.34 -1 19.68 -1 19 C-2.32 18.34 -3.64 17.68 -5 17 C-5.76681614 7.42331839 -5.76681614 7.42331839 -3.88671875 3.93359375 C-2.5 2.3125 -2.5 2.3125 0 0 Z " fill="#F4DE94" transform="translate(135,59)"/>
<path d="M0 0 C0 0.99 0 1.98 0 3 C-0.66 3 -1.32 3 -2 3 C-1.67 6.3 -1.34 9.6 -1 13 C-0.34 13 0.32 13 1 13 C1.61875 13.99 2.2375 14.98 2.875 16 C4.8512945 18.55897099 5.72151022 18.96296485 8.99609375 19.3984375 C12.01676131 19.37709003 14.99086729 19.25915975 18 19 C18 19.66 18 20.32 18 21 C17.34 21 16.68 21 16 21 C16 21.66 16 22.32 16 23 C11.91556885 24.53166168 8.20544343 23.63081652 4 23 C4 22.34 4 21.68 4 21 C2.02 21 0.04 21 -2 21 C-2 19.68 -2 18.36 -2 17 C-2.66 17 -3.32 17 -4 17 C-5.61491589 11.58528202 -6.46197732 7.6229897 -5 2 C-2 0 -2 0 0 0 Z " fill="#44290D" transform="translate(130,175)"/>
<path d="M0 0 C1.42149484 2.9178052 2 4.73204297 2 8 C2.66 8 3.32 8 4 8 C4 8.66 4 9.32 4 10 C4.66 10 5.32 10 6 10 C6 11.98 6 13.96 6 16 C5.67 15.34 5.34 14.68 5 14 C4.34 14 3.68 14 3 14 C3 13.01 3 12.02 3 11 C2.34 11 1.68 11 1 11 C0.5875 10.195625 0.175 9.39125 -0.25 8.5625 C-1.80803511 5.67500908 -1.80803511 5.67500908 -5.1875 5.1875 C-6.5796875 5.0946875 -6.5796875 5.0946875 -8 5 C-8 4.34 -8 3.68 -8 3 C-11.3 3 -14.6 3 -18 3 C-15 -1 -15 -1 -13.3125 -1.75 C-4.11627907 -2.74418605 -4.11627907 -2.74418605 0 0 Z " fill="#3F2613" transform="translate(152,52)"/>
<path d="M0 0 C0.33 0.99 0.66 1.98 1 3 C-8.41002278 4.14806378 -8.41002278 4.14806378 -13 4 C-13 4.66 -13 5.32 -13 6 C-13.61875 6.2475 -14.2375 6.495 -14.875 6.75 C-17.47042686 8.27672168 -17.93030318 9.21114759 -19 12 C-19.24073194 14.82085728 -19.24073194 14.82085728 -19.125 17.75 C-19.10695313 18.73484375 -19.08890625 19.7196875 -19.0703125 20.734375 C-19.04710938 21.48203125 -19.02390625 22.2296875 -19 23 C-19.66 23 -20.32 23 -21 23 C-23.24828052 18.50343896 -23.16682272 14.92127034 -23 10 C-22.34 10 -21.68 10 -21 10 C-20.896875 9.236875 -20.79375 8.47375 -20.6875 7.6875 C-19.91560751 4.67010209 -19.42886456 3.87235812 -17 2 C-14.2578125 1.26953125 -14.2578125 1.26953125 -11.125 0.8125 C-10.09632813 0.65394531 -9.06765625 0.49539062 -8.0078125 0.33203125 C-5.30443215 0.03360615 -2.71608477 -0.06514594 0 0 Z " fill="#3A2210" transform="translate(147,110)"/>
<path d="M0 0 C0.66 0 1.32 0 2 0 C2.03738281 0.62648438 2.07476562 1.25296875 2.11328125 1.8984375 C2.17902344 2.71570313 2.24476563 3.53296875 2.3125 4.375 C2.37050781 5.18710938 2.42851562 5.99921875 2.48828125 6.8359375 C2.82990528 9.37921338 2.82990528 9.37921338 6 11 C6 11.66 6 12.32 6 13 C10.40824559 14.4694152 15.57791189 15.17016493 19.8515625 13.10546875 C21.28617956 12.14339143 22.65117059 11.07906353 24 10 C23.40138258 12.35171131 22.73075648 14.6859378 22 17 C19.41086532 18.29456734 17.86191275 17.93282201 15 17.625 C14.113125 17.53476563 13.22625 17.44453125 12.3125 17.3515625 C10 17 10 17 8 16 C8 16.66 8 17.32 8 18 C6.35 17.67 4.7 17.34 3 17 C2.67 15.68 2.34 14.36 2 13 C1.01 13.495 1.01 13.495 0 14 C0 9.38 0 4.76 0 0 Z " fill="#654A20" transform="translate(128,67)"/>
<path d="M0 0 C0 0.66 0 1.32 0 2 C-0.66 2 -1.32 2 -2 2 C-2 3.32 -2 4.64 -2 6 C-3.8125 8.75 -3.8125 8.75 -6 11 C-6.99 11 -7.98 11 -9 11 C-9.33 11.99 -9.66 12.98 -10 14 C-10.66 14 -11.32 14 -12 14 C-12 15.98 -12 17.96 -12 20 C-12.99 20.33 -13.98 20.66 -15 21 C-16.1369863 15.8398314 -16.1369863 15.8398314 -16 13 C-13.6875 10.125 -13.6875 10.125 -11 8 C-8.82093399 6.23022773 -8.82093399 6.23022773 -8.75 4 C-8.5025 3.34 -8.255 2.68 -8 2 C-5.25822503 0.83328724 -2.99432393 0 0 0 Z " fill="#4B3216" transform="translate(80,109)"/>
<path d="M0 0 C2.0625 1.6875 2.0625 1.6875 4 4 C4.125 6.4375 4.125 6.4375 3 9 C1.03814584 10.71140469 -0.96302383 12.37873325 -3 14 C-3.433125 15.11375 -3.433125 15.11375 -3.875 16.25 C-5 18 -5 18 -6.890625 18.46875 C-8.91876404 18.72404023 -10.96009786 18.86839341 -13 19 C-13 18.34 -13 17.68 -13 17 C-15.31 17 -17.62 17 -20 17 C-20 16.01 -20 15.02 -20 14 C-19.15695313 14.0721875 -18.31390625 14.144375 -17.4453125 14.21875 C-15.80175781 14.35796875 -15.80175781 14.35796875 -14.125 14.5 C-13.03445312 14.5928125 -11.94390625 14.685625 -10.8203125 14.78125 C-9.21670436 14.90562958 -7.60842449 15 -6 15 C-5.731875 13.9275 -5.46375 12.855 -5.1875 11.75 C-4.11158417 8.35237105 -3.14704048 6.707138 -1 4 C-0.29485154 1.85266073 -0.29485154 1.85266073 0 0 Z " fill="#3D240E" transform="translate(156,69)"/>
<path d="M0 0 C-1.60269236 2.65273218 -2.55115996 4.2024472 -5 6 C-8.73208964 6.69371695 -12.27697042 6.77338296 -16 6 C-16.66 5.01 -17.32 4.02 -18 3 C-19.32 3.33 -20.64 3.66 -22 4 C-22.33 3.01 -22.66 2.02 -23 1 C-18.8530784 0.40758263 -14.87841962 -0.06220289 -10.6875 0 C0 0 0 0 0 0 Z " fill="#3C250F" transform="translate(153,139)"/>
<path d="M0 0 C2.13671875 0.4765625 2.13671875 0.4765625 4.13671875 2.4765625 C0.50671875 2.4765625 -3.12328125 2.4765625 -6.86328125 2.4765625 C-11.1268417 8.76468694 -11.1268417 8.76468694 -11.67578125 16.0390625 C-11.40765625 17.1734375 -11.13953125 18.3078125 -10.86328125 19.4765625 C-10.26515625 19.5590625 -9.66703125 19.6415625 -9.05078125 19.7265625 C-6.26665165 20.68112122 -5.43016983 22.04788521 -3.86328125 24.4765625 C-7.74738688 24.21173712 -9.40948605 23.94262243 -12.17578125 21.1015625 C-14.92223563 16.82930014 -15.52205557 13.49971669 -14.86328125 8.4765625 C-11.2631147 1.83367455 -7.48423631 -0.43552983 0 0 Z " fill="#DDC583" transform="translate(85.86328125,114.5234375)"/>
<path d="M0 0 C0.99 0 1.98 0 3 0 C4.75 1.75 4.75 1.75 6 4 C5.254374 8.33900431 3.61212418 12.45443663 1 16 C-3.91572285 19.30258098 -9.27256358 19.30682695 -15 19 C-15 18.67 -15 18.34 -15 18 C-14.33613281 17.92523438 -13.67226562 17.85046875 -12.98828125 17.7734375 C-6.85458926 16.9068541 -6.85458926 16.9068541 -1.875 13.5 C0.60761959 8.86577676 0.45758836 5.14532689 0 0 Z " fill="#533917" transform="translate(95,121)"/>
<path d="M0 0 C1.93681161 -0.08107583 3.8745934 -0.13922475 5.8125 -0.1875 C6.89144531 -0.22230469 7.97039062 -0.25710937 9.08203125 -0.29296875 C12 0 12 0 13.88671875 1.32421875 C15 3 15 3 15 6 C15.66 6 16.32 6 17 6 C17 6.99 17 7.98 17 9 C17.66 9 18.32 9 19 9 C18.74445946 10.46109063 18.46999628 11.91888096 18.1875 13.375 C18.03667969 14.18710938 17.88585937 14.99921875 17.73046875 15.8359375 C17 18 17 18 14 20 C14.33 19.01 14.66 18.02 15 17 C15.51297432 13.88717859 15.65239611 11.09888154 15 8 C12.06249363 4.18482404 8.21630278 2.80966615 3.5625 2.1875 C1.7990625 2.0946875 1.7990625 2.0946875 0 2 C0 1.34 0 0.68 0 0 Z " fill="#644C21" transform="translate(138,57)"/>
<path d="M0 0 C2.60226495 3.90339743 2.07424485 7.47106423 2 12 C2.33 12.33 2.66 12.66 3 13 C3.47058824 18.41176471 3.47058824 18.41176471 1.5 20.875 C0.7575 21.431875 0.7575 21.431875 0 22 C-1.21681807 18.34954579 -1.43333888 14.80902803 -1.6875 11 C-1.74744141 10.27554688 -1.80738281 9.55109375 -1.86914062 8.8046875 C-2.13143 4.90986999 -2.22565828 3.33848743 0 0 Z " fill="#361F12" transform="translate(157,168)"/>
<path d="M0 0 C0.33 0.66 0.66 1.32 1 2 C0.0625 4.5625 0.0625 4.5625 -2 7 C-4.85580051 7.60861322 -7.13692182 7.92408505 -10 8 C-11.093125 8.061875 -12.18625 8.12375 -13.3125 8.1875 C-16 8 -16 8 -19 6 C-19 5.34 -19 4.68 -19 4 C-16 3 -16 3 -13.25 3.5 C-9.52127491 4.07365001 -6.67394587 3.8318368 -3 3 C-1.07716915 1.58408173 -1.07716915 1.58408173 0 0 Z " fill="#3C230E" transform="translate(154,194)"/>
<path d="M0 0 C0.66 0.66 1.32 1.32 2 2 C1.67 2.99 1.34 3.98 1 5 C1 4.34 1 3.68 1 3 C-2.00610306 3.98238662 -5.00429568 4.9863781 -8 6 C-8.99 6.33 -9.98 6.66 -11 7 C-11.99 7.495 -11.99 7.495 -13 8 C-13.33 8.99 -13.66 9.98 -14 11 C-14.99 11 -15.98 11 -17 11 C-17 8.75 -17 8.75 -16 6 C-14.07268148 4.72520411 -12.12630089 3.81306404 -10.0078125 2.89453125 C-2.85391827 -0.29270957 -2.85391827 -0.29270957 0 0 Z " fill="#361E0E" transform="translate(145,163)"/>
<path d="M0 0 C0.66 0 1.32 0 2 0 C2.33 1.32 2.66 2.64 3 4 C2.34 4 1.68 4 1 4 C0.7525 4.61875 0.505 5.2375 0.25 5.875 C-1.20628639 8.35068687 -2.37812506 8.95125002 -5 10 C-5.33 9.34 -5.66 8.68 -6 8 C-6.99 8.33 -7.98 8.66 -9 9 C-11.3406065 8.72230092 -13.67624308 8.39460023 -16 8 C-16 7.34 -16 6.68 -16 6 C-15.18015625 5.90203125 -14.3603125 5.8040625 -13.515625 5.703125 C-12.43796875 5.55359375 -11.3603125 5.4040625 -10.25 5.25 C-9.18265625 5.11078125 -8.1153125 4.9715625 -7.015625 4.828125 C-3.577768 3.88405028 -2.34683825 2.6005505 0 0 Z " fill="#372110" transform="translate(212,137)"/>
<path d="M0 0 C0.66 0.33 1.32 0.66 2 1 C1.67 1.66 1.34 2.32 1 3 C1.66 3.33 2.32 3.66 3 4 C2.59007812 4.46148437 2.18015625 4.92296875 1.7578125 5.3984375 C-2.61465774 10.69142779 -4.19375901 15.21645511 -5 22 C-5.33 22 -5.66 22 -6 22 C-6.33 17.71 -6.66 13.42 -7 9 C-6.34 9 -5.68 9 -5 9 C-4.67 7.68 -4.34 6.36 -4 5 C-3.34 5 -2.68 5 -2 5 C-1.34 3.35 -0.68 1.7 0 0 Z " fill="#371F10" transform="translate(130,53)"/>
<path d="M0 0 C0.33 0 0.66 0 1 0 C1.33 3.63 1.66 7.26 2 11 C4.475 11.99 4.475 11.99 7 13 C7.33 13.33 7.66 13.66 8 14 C9.4346959 14.09894455 10.87440397 14.12970735 12.3125 14.125 C13.09238281 14.12757813 13.87226563 14.13015625 14.67578125 14.1328125 C16.96840644 14.00180535 18.85336942 13.8245336 21 13 C21.33 12.01 21.66 11.02 22 10 C22.33 10.66 22.66 11.32 23 12 C22.34 13.65 21.68 15.3 21 17 C15.39 16.67 9.78 16.34 4 16 C4 15.34 4 14.68 4 14 C3.34 14 2.68 14 2 14 C-0.3992233 9.35150485 -0.19957409 5.08913926 0 0 Z " fill="#72592A" transform="translate(187,124)"/>
<path d="M0 0 C0.33 0.99 0.66 1.98 1 3 C1.66 3 2.32 3 3 3 C3 3.66 3 4.32 3 5 C4.32 5 5.64 5 7 5 C6.88529863 6.75070517 6.75780972 8.50057536 6.625 10.25 C6.55539063 11.22453125 6.48578125 12.1990625 6.4140625 13.203125 C6.01534751 15.89633189 5.36492937 17.66963279 4 20 C3.34 20 2.68 20 2 20 C2.165 19.484375 2.33 18.96875 2.5 18.4375 C3.1830061 15.10784527 3.35741638 12.39545558 3 9 C0.666508 6.16588845 0.666508 6.16588845 -2 4 C-2.33 3.34 -2.66 2.68 -3 2 C-2.01 2 -1.02 2 0 2 C0 1.34 0 0.68 0 0 Z " fill="#604321" transform="translate(208,114)"/>
<path d="M0 0 C0.6875 2.125 0.6875 2.125 1 4 C0.38253906 3.84402344 -0.23492187 3.68804687 -0.87109375 3.52734375 C-6.98659625 2.12180208 -11.80662981 2.00106932 -18 3 C-15.5879397 -0.73869347 -15.5879397 -0.73869347 -13.3125 -1.75 C-4.11627907 -2.74418605 -4.11627907 -2.74418605 0 0 Z " fill="#2E1C10" transform="translate(152,52)"/>
<path d="M0 0 C0.66 0.33 1.32 0.66 2 1 C1.67 1.66 1.34 2.32 1 3 C0.5957377 8.25540985 1.24049126 11.50302279 4 16 C5.56102491 17.81554159 5.56102491 17.81554159 7 19 C5.35 19.33 3.7 19.66 2 20 C1.54625 18.88625 1.0925 17.7725 0.625 16.625 C-0.72465986 13.03800992 -0.72465986 13.03800992 -3 11 C-3.57416268 3.76555024 -3.57416268 3.76555024 -1.5 1 C-1.005 0.67 -0.51 0.34 0 0 Z " fill="#5C431A" transform="translate(71,120)"/>
<path d="M0 0 C0.66 1.32 1.32 2.64 2 4 C1.38125 3.649375 0.7625 3.29875 0.125 2.9375 C-4.4188765 1.57433705 -8.47645109 1.44503006 -13 3 C-15.28151202 5.41354396 -16.54871669 8.04301025 -18 11 C-18.66 11.66 -19.32 12.32 -20 13 C-20 11.35 -20 9.7 -20 8 C-19.34 8 -18.68 8 -18 8 C-18 7.01 -18 6.02 -18 5 C-18.66 4.67 -19.32 4.34 -20 4 C-13.20780865 -0.17981006 -7.88602342 -0.4731614 0 0 Z " fill="#684C20" transform="translate(148,170)"/>
<path d="M0 0 C1.51400391 0.01740234 1.51400391 0.01740234 3.05859375 0.03515625 C4.07050781 0.04417969 5.08242187 0.05320312 6.125 0.0625 C7.29869141 0.07990234 7.29869141 0.07990234 8.49609375 0.09765625 C8.49609375 0.42765625 8.49609375 0.75765625 8.49609375 1.09765625 C7.78582031 1.14664063 7.07554687 1.195625 6.34375 1.24609375 C4.96509766 1.35824219 4.96509766 1.35824219 3.55859375 1.47265625 C2.64207031 1.54226562 1.72554687 1.611875 0.78125 1.68359375 C-0.34990234 1.88855469 -0.34990234 1.88855469 -1.50390625 2.09765625 C-1.83390625 2.75765625 -2.16390625 3.41765625 -2.50390625 4.09765625 C-3.49390625 4.09765625 -4.48390625 4.09765625 -5.50390625 4.09765625 C-5.50390625 6.07765625 -5.50390625 8.05765625 -5.50390625 10.09765625 C-5.83390625 10.09765625 -6.16390625 10.09765625 -6.50390625 10.09765625 C-6.83390625 12.07765625 -7.16390625 14.05765625 -7.50390625 16.09765625 C-6.51390625 16.09765625 -5.52390625 16.09765625 -4.50390625 16.09765625 C-4.50390625 17.74765625 -4.50390625 19.39765625 -4.50390625 21.09765625 C-5.49390625 20.76765625 -6.48390625 20.43765625 -7.50390625 20.09765625 C-9.0441398 15.47695559 -9.15923255 10.91747547 -8.50390625 6.09765625 C-6.06640625 2.97265625 -6.06640625 2.97265625 -3.50390625 1.09765625 C-2.50390625 0.09765625 -2.50390625 0.09765625 0 0 Z " fill="#D1B976" transform="translate(196.50390625,114.90234375)"/>
<path d="M0 0 C4.875 1.75 4.875 1.75 6 4 C6.42214912 9.31907895 6.42214912 9.31907895 6 12 C4 14 4 14 2 15 C1.93941406 14.41992188 1.87882812 13.83984375 1.81640625 13.2421875 C1.33983439 8.79907137 0.78991334 4.40094577 0 0 Z " fill="#E2CA88" transform="translate(90,119)"/>
<path d="M0 0 C1.32 0.33 2.64 0.66 4 1 C6.05076648 7.15229943 5.36013736 13.09965659 3 19 C1.35 19.33 -0.3 19.66 -2 20 C-1.34 19.21625 -0.68 18.4325 0 17.625 C2.82064254 13.42404303 2.69380891 8.88893258 2 4 C1.05400701 1.76148141 1.05400701 1.76148141 0 0 Z " fill="#7D6134" transform="translate(150,174)"/>
<path d="M0 0 C8.19256018 -0.63019694 8.19256018 -0.63019694 11.5625 2 C12.036875 2.66 12.51125 3.32 13 4 C9.4554328 5.1815224 7.64313132 4.64290553 4 4 C2.00034285 3.96296931 -0.00056665 3.95239444 -2 4 C-1.34 2.68 -0.68 1.36 0 0 Z " fill="#F7E296" transform="translate(137,59)"/>
<path d="M0 0 C0 0.99 0 1.98 0 3 C-0.66 3 -1.32 3 -2 3 C-1.67 5.97 -1.34 8.94 -1 12 C-2.32 12 -3.64 12 -5 12 C-6.22159091 5.64772727 -6.22159091 5.64772727 -5.1875 2.625 C-3.62503329 0.48688765 -2.64681292 0 0 0 Z " fill="#432911" transform="translate(130,175)"/>
<path d="M0 0 C0 0.33 0 0.66 0 1 C-0.90492188 1.07347656 -0.90492188 1.07347656 -1.828125 1.1484375 C-3.02695313 1.26058594 -3.02695313 1.26058594 -4.25 1.375 C-5.43335938 1.47941406 -5.43335938 1.47941406 -6.640625 1.5859375 C-9.14662473 2.02573215 -10.86868524 2.61205772 -13 4 C-13.69100553 5.99172182 -14.35902703 7.99161804 -15 10 C-15.99 10.33 -16.98 10.66 -18 11 C-16.9015025 3.78130217 -16.9015025 3.78130217 -14.125 1.375 C-9.48021715 -0.66870445 -5.00214334 -0.23652867 0 0 Z " fill="#4F340F" transform="translate(203,114)"/>
<path d="M0 0 C1 2 1 2 0.1875 4.5625 C-1 7 -1 7 -3 8 C-4.71233688 7.9129796 -6.42175406 7.75902838 -8.125 7.5625 C-9.03507813 7.46066406 -9.94515625 7.35882813 -10.8828125 7.25390625 C-11.58148438 7.17011719 -12.28015625 7.08632812 -13 7 C-13 6.34 -13 5.68 -13 5 C-11.96939453 4.83564453 -11.96939453 4.83564453 -10.91796875 4.66796875 C-10.01691406 4.50941406 -9.11585938 4.35085937 -8.1875 4.1875 C-6.84751953 3.96126953 -6.84751953 3.96126953 -5.48046875 3.73046875 C-2.81678744 2.94604607 -1.74309678 2.11372201 0 0 Z " fill="#72582A" transform="translate(151,77)"/>
<path d="M0 0 C0 0.33 0 0.66 0 1 C-2.97 1 -5.94 1 -9 1 C-9.33 2.32 -9.66 3.64 -10 5 C-10.33 5.33 -10.66 5.66 -11 6 C-11.36760731 8.32817964 -11.70241581 10.6618385 -12 13 C-14 11 -14 11 -15 8 C-15 5 -15 5 -13.125 2.3125 C-8.77541659 -0.90619173 -5.23461316 -0.45739338 0 0 Z " fill="#DCC67F" transform="translate(146,115)"/>
<path d="M0 0 C0.99 0 1.98 0 3 0 C3 1.65 3 3.3 3 5 C-4.425 4.01 -4.425 4.01 -12 3 C-12 2.67 -12 2.34 -12 2 C-7.86780387 0.70362474 -4.33671708 -0.24092873 0 0 Z " fill="#492E0F" transform="translate(205,111)"/>
<path d="M0 0 C2 2 2 2 2.0625 4.875 C2.041875 5.90625 2.02125 6.9375 2 8 C2.43941523 10.26566343 2.43941523 10.26566343 3 12 C1.68 12.99 0.36 13.98 -1 15 C-1.18451025 4.44191344 -1.18451025 4.44191344 0 0 Z " fill="#3F260D" transform="translate(156,119)"/>
<path d="M0 0 C0.66 0.99 1.32 1.98 2 3 C1.67 3.99 1.34 4.98 1 6 C-4.61897168 8.66161816 -8.82711812 9.3306901 -15 9 C-15 8.67 -15 8.34 -15 8 C-14.33613281 7.92523438 -13.67226562 7.85046875 -12.98828125 7.7734375 C-6.64051347 6.86649506 -6.64051347 6.86649506 -1.875 2.875 C-1.25625 1.92625 -0.6375 0.9775 0 0 Z " fill="#745B2E" transform="translate(95,131)"/>
<path d="M0 0 C3 3 3 3 3.36328125 5.12109375 C3.34652344 5.88550781 3.32976562 6.64992188 3.3125 7.4375 C3.30863281 8.19933594 3.30476562 8.96117188 3.30078125 9.74609375 C2.96825979 12.23784549 2.32267391 13.86979886 1 16 C-1.125 17.25 -1.125 17.25 -3 18 C-3 17.01 -3 16.02 -3 15 C-2.01 15 -1.02 15 0 15 C0 10.05 0 5.1 0 0 Z " fill="#D0B87A" transform="translate(151,119)"/>
<path d="M0 0 C0.66 0.66 1.32 1.32 2 2 C0.7260411 4.03833424 -0.61061923 6.03852126 -2 8 C-2.66 8 -3.32 8 -4 8 C-4 9.65 -4 11.3 -4 13 C-4.66 12.67 -5.32 12.34 -6 12 C-6.35671933 8.16526716 -6.29771416 6.44657125 -4.125 3.1875 C-2 1 -2 1 0 0 Z " fill="#50350E" transform="translate(132,59)"/>
<path d="M0 0 C8.78723404 -0.29787234 8.78723404 -0.29787234 13 2 C13.33 2.66 13.66 3.32 14 4 C9.4637333 4.07688588 5.43483405 4.04349036 1 3 C0.34 3 -0.32 3 -1 3 C-0.67 2.01 -0.34 1.02 0 0 Z " fill="#F3DC92" transform="translate(79,116)"/>
<path d="M0 0 C0.66 0.33 1.32 0.66 2 1 C1.67 1.66 1.34 2.32 1 3 C1.99 3.33 2.98 3.66 4 4 C2.87926138 4.83905565 1.75325453 5.67107831 0.625 6.5 C-0.00148437 6.9640625 -0.62796875 7.428125 -1.2734375 7.90625 C-3 9 -3 9 -5 9 C-4.5206753 4.68607774 -3.2542015 2.83430453 0 0 Z " fill="#E0CA7F" transform="translate(135,59)"/>
<path d="M0 0 C0.33 0.99 0.66 1.98 1 3 C-0.41543415 3.19658808 -1.83244031 3.38187546 -3.25 3.5625 C-4.03890625 3.66691406 -4.8278125 3.77132812 -5.640625 3.87890625 C-8.00532874 4.00027349 -9.7511037 3.69633257 -12 3 C-7.86112344 0.24074896 -4.92824278 -0.13689563 0 0 Z " fill="#42280E" transform="translate(147,110)"/>
<path d="M0 0 C0.33 0.66 0.66 1.32 1 2 C-0.0625 4.5625 -0.0625 4.5625 -2 7 C-5.0625 7.9375 -5.0625 7.9375 -8 8 C-8.66 7.34 -9.32 6.68 -10 6 C-9.44570312 5.73445312 -8.89140625 5.46890625 -8.3203125 5.1953125 C-7.59585938 4.84210938 -6.87140625 4.48890625 -6.125 4.125 C-5.40570313 3.77695313 -4.68640625 3.42890625 -3.9453125 3.0703125 C-1.84864981 2.03442457 -1.84864981 2.03442457 0 0 Z " fill="#331C10" transform="translate(154,194)"/>
<path d="M0 0 C0 0.66 0 1.32 0 2 C-0.66 2 -1.32 2 -2 2 C-2 2.66 -2 3.32 -2 4 C-5.05263664 4.98120464 -6.94736336 4.98120464 -10 4 C-10 3.34 -10 2.68 -10 2 C-10.66 1.67 -11.32 1.34 -12 1 C-10.37512529 0.83211627 -8.75009558 0.66573213 -7.125 0.5 C-6.22007812 0.4071875 -5.31515625 0.314375 -4.3828125 0.21875 C-2 0 -2 0 0 0 Z " fill="#6D5126" transform="translate(148,194)"/>
<path d="M0 0 C3 2 3 2 3.46875 3.98828125 C3.53029489 8.56568213 3.50698808 10.3789396 0.5 14.0625 C-0.325 14.701875 -1.15 15.34125 -2 16 C-2 14.02 -2 12.04 -2 10 C-0.68 9.67 0.64 9.34 2 9 C1.34 6.03 0.68 3.06 0 0 Z " fill="#DBC380" transform="translate(151,63)"/>
<path d="M0 0 C0.33 0 0.66 0 1 0 C1.35338623 2.96844435 1.5417682 5.15598218 -0.11328125 7.734375 C-1.35503168 9.20348819 -2.67337918 10.60704814 -4 12 C-5 9 -5 9 -5 6 C-3.70896357 4.6256709 -2.3743291 3.29103643 -1 2 C-0.67 1.34 -0.34 0.68 0 0 Z " fill="#F1DA92" transform="translate(152,182)"/>
<path d="M0 0 C0.33 0.66 0.66 1.32 1 2 C-4.625 3.125 -4.625 3.125 -8 2 C-8.33 2.99 -8.66 3.98 -9 5 C-10.32 4.67 -11.64 4.34 -13 4 C-9.21303116 -0.35501417 -5.55636855 -0.1262811 0 0 Z " fill="#DFC382" transform="translate(145,171)"/>
<path d="M0 0 C-1.32 1.32 -2.64 2.64 -4 4 C-4.33 3.67 -4.66 3.34 -5 3 C-7.84087552 2.71681146 -10.68165215 2.55149787 -13.53125 2.37890625 C-14.3459375 2.25386719 -15.160625 2.12882813 -16 2 C-16.33 1.34 -16.66 0.68 -17 0 C-16.31292969 0.01160156 -15.62585938 0.02320313 -14.91796875 0.03515625 C-13.56638672 0.04869141 -13.56638672 0.04869141 -12.1875 0.0625 C-10.84751953 0.07990234 -10.84751953 0.07990234 -9.48046875 0.09765625 C-0.78804348 -0.24456522 -0.78804348 -0.24456522 0 0 Z " fill="#4B310E" transform="translate(153,139)"/>
<path d="M0 0 C1 2 1 2 0.4375 4.5 C-1 7 -1 7 -3.625 8.3125 C-7.56329323 9.11474492 -10.98785434 9.13834985 -15 9 C-15 8.67 -15 8.34 -15 8 C-14.11248047 7.81824219 -14.11248047 7.81824219 -13.20703125 7.6328125 C-6.88995883 6.42528265 -6.88995883 6.42528265 -1 4 C-0.11306697 1.95894361 -0.11306697 1.95894361 0 0 Z " fill="#7E6332" transform="translate(153,131)"/>
<path d="M0 0 C0.66 0 1.32 0 2 0 C2 1.32 2 2.64 2 4 C1.01 4 0.02 4 -1 4 C-1.33 5.32 -1.66 6.64 -2 8 C-4.97 8 -7.94 8 -11 8 C-10.67 7.34 -10.34 6.68 -10 6 C-9.0925 6.12375 -8.185 6.2475 -7.25 6.375 C-6.1775 6.25125 -5.105 6.1275 -4 6 C-1.71760829 3.07678035 -1.71760829 3.07678035 0 0 Z " fill="#FAE395" transform="translate(149,130)"/>
<path d="M0 0 C0 0.66 0 1.32 0 2 C-0.66 2 -1.32 2 -2 2 C-2 2.66 -2 3.32 -2 4 C-2.99 4 -3.98 4 -5 4 C-5.33 5.32 -5.66 6.64 -6 8 C-6.66 8 -7.32 8 -8 8 C-8 6.02 -8 4.04 -8 2 C-2.25 0 -2.25 0 0 0 Z " fill="#381F0F" transform="translate(80,109)"/>
<path d="M0 0 C3.63 0 7.26 0 11 0 C11.33 0.99 11.66 1.98 12 3 C8.37 3 4.74 3 1 3 C0.67 2.01 0.34 1.02 0 0 Z " fill="#FAE393" transform="translate(137,173)"/>
<path d="M0 0 C0.66 0 1.32 0 2 0 C2 0.66 2 1.32 2 2 C4.97 2.33 7.94 2.66 11 3 C10.67 3.66 10.34 4.32 10 5 C7.03 5 4.06 5 1 5 C0.34 3.68 -0.32 2.36 -1 1 C-0.67 0.67 -0.34 0.34 0 0 Z " fill="#3C2609" transform="translate(76,139)"/>
<path d="M0 0 C0.33 1.32 0.66 2.64 1 4 C0.34 4 -0.32 4 -1 4 C-0.938125 4.928125 -0.87625 5.85625 -0.8125 6.8125 C-1 10 -1 10 -2.5 11.875 C-3.2425 12.431875 -3.2425 12.431875 -4 13 C-4 4.24 -4 4.24 -1.4375 1.0625 C-0.7259375 0.5365625 -0.7259375 0.5365625 0 0 Z " fill="#311D12" transform="translate(187,111)"/>
<path d="M0 0 C0.33 0 0.66 0 1 0 C1.33 3.3 1.66 6.6 2 10 C1.01 10.33 0.02 10.66 -1 11 C-2.25 3.375 -2.25 3.375 0 0 Z " fill="#36230E" transform="translate(66,119)"/>
<path d="M0 0 C0.33 1.65 0.66 3.3 1 5 C-2.875 3.125 -2.875 3.125 -4 2 C-5.34747084 1.76924918 -6.70377565 1.58846937 -8.0625 1.4375 C-9.361875 1.293125 -10.66125 1.14875 -12 1 C-12 0.67 -12 0.34 -12 0 C-7.66726186 -0.92844389 -4.33273814 -0.92844389 0 0 Z " fill="#6E5628" transform="translate(150,114)"/>
<path d="M0 0 C3.96 0 7.92 0 12 0 C11.67 0.99 11.34 1.98 11 3 C9.54176788 3.0270043 8.08339325 3.04639787 6.625 3.0625 C5.81289062 3.07410156 5.00078125 3.08570313 4.1640625 3.09765625 C2 3 2 3 0 2 C0 1.34 0 0.68 0 0 Z " fill="#4E3810" transform="translate(78,139)"/>
<path d="M0 0 C0.33 0.66 0.66 1.32 1 2 C1.66 2 2.32 2 3 2 C2.74445946 3.46109063 2.46999628 4.91888096 2.1875 6.375 C2.03667969 7.18710938 1.88585937 7.99921875 1.73046875 8.8359375 C1 11 1 11 -2 13 C-1.34 8.71 -0.68 4.42 0 0 Z " fill="#634924" transform="translate(154,64)"/>
<path d="M0 0 C0.66 0 1.32 0 2 0 C2.33 0.66 2.66 1.32 3 2 C3.61875 2.12375 4.2375 2.2475 4.875 2.375 C7.67393003 3.19821471 8.45280415 4.60184644 10 7 C6.01310533 6.72816627 4.43314097 6.45593786 1.625 3.5 C0 1 0 1 0 0 Z " fill="#D0B87A" transform="translate(72,132)"/>
<path d="M0 0 C0.66 0.33 1.32 0.66 2 1 C2.1875 3.8125 2.1875 3.8125 2 7 C0.48828125 8.69921875 0.48828125 8.69921875 -1 10 C-1.02689216 8.52093108 -1.04634621 7.04172517 -1.0625 5.5625 C-1.07410156 4.73878906 -1.08570313 3.91507812 -1.09765625 3.06640625 C-1 1 -1 1 0 0 Z " fill="#F7E29D" transform="translate(131,122)"/>
<path d="M0 0 C3.3 0 6.6 0 10 0 C10 0.99 10 1.98 10 3 C6.7 2.67 3.4 2.34 0 2 C0 1.34 0 0.68 0 0 Z " fill="#856A3E" transform="translate(138,57)"/>
<path d="M0 0 C0.66 0 1.32 0 2 0 C3.2890625 1.53125 3.2890625 1.53125 4.625 3.5 C5.07101563 4.1496875 5.51703125 4.799375 5.9765625 5.46875 C6.31429687 5.9740625 6.65203125 6.479375 7 7 C4.03 6.505 4.03 6.505 1 6 C0.67 4.02 0.34 2.04 0 0 Z " fill="#735729" transform="translate(129,188)"/>
<path d="M0 0 C3.3 0 6.6 0 10 0 C10.66 1.32 11.32 2.64 12 4 C11.34 3.67 10.68 3.34 10 3 C6.13938967 1.71312989 3.05849717 1.86242382 -1 2 C-0.67 1.34 -0.34 0.68 0 0 Z " fill="#795C2D" transform="translate(138,170)"/>
<path d="M0 0 C0.33 0.99 0.66 1.98 1 3 C1.66 3 2.32 3 3 3 C3.33 4.98 3.66 6.96 4 9 C1.69 7.02 -0.62 5.04 -3 3 C-2.01 2.67 -1.02 2.34 0 2 C0 1.34 0 0.68 0 0 Z " fill="#6B5028" transform="translate(208,114)"/>
<path d="M0 0 C1.125 1.6875 1.125 1.6875 2 4 C1.125 6.75 1.125 6.75 0 9 C-0.66 8.67 -1.32 8.34 -2 8 C-1.125 1.125 -1.125 1.125 0 0 Z " fill="#2C1A0F" transform="translate(157,168)"/>
<path d="M0 0 C0.66 0.99 1.32 1.98 2 3 C1.34 3 0.68 3 0 3 C-0.2475 3.61875 -0.495 4.2375 -0.75 4.875 C-2.20628639 7.35068687 -3.37812506 7.95125002 -6 9 C-6 8.01 -6 7.02 -6 6 C-5.34 6 -4.68 6 -4 6 C-3.67 5.34 -3.34 4.68 -3 4 C-2.01268258 2.65724831 -1.01405257 1.32267727 0 0 Z " fill="#29180E" transform="translate(213,138)"/>
<path d="M0 0 C2.31 0 4.62 0 7 0 C6.67 0.66 6.34 1.32 6 2 C3.93359375 2.6328125 3.93359375 2.6328125 1.4375 3.125 C0.19806641 3.37636719 0.19806641 3.37636719 -1.06640625 3.6328125 C-1.70449219 3.75398437 -2.34257812 3.87515625 -3 4 C-3 3.34 -3 2.68 -3 2 C-2.01 2 -1.02 2 0 2 C0 1.34 0 0.68 0 0 Z " fill="#483010" transform="translate(198,140)"/>
<path d="M0 0 C0 0.99 0 1.98 0 3 C2.31 3 4.62 3 7 3 C7 3.33 7 3.66 7 4 C5.56344146 4.08131463 4.1255517 4.13933559 2.6875 4.1875 C1.48673828 4.23970703 1.48673828 4.23970703 0.26171875 4.29296875 C-2.47851584 3.93801608 -3.29171079 3.10633718 -5 1 C-2 0 -2 0 0 0 Z " fill="#D4BC77" transform="translate(138,135)"/>
<path d="M0 0 C0.75 1.625 0.75 1.625 1 4 C-0.8125 7.25 -0.8125 7.25 -3 10 C-3.66 10 -4.32 10 -5 10 C-4.625 8.0625 -4.625 8.0625 -4 6 C-3.34 5.67 -2.68 5.34 -2 5 C-1.27840576 3.35636866 -0.60648579 1.68949614 0 0 Z " fill="#4A2D13" transform="translate(214,128)"/>
<path d="M0 0 C0.66 0.66 1.32 1.32 2 2 C1.61121812 5.01305957 0.73543126 6.39685311 -1 9 C-1.33 6.69 -1.66 4.38 -2 2 C-1.34 2 -0.68 2 0 2 C0 1.34 0 0.68 0 0 Z " fill="#3C250B" transform="translate(99,123)"/>
<path d="M0 0 C1.98 0 3.96 0 6 0 C6 0.99 6 1.98 6 3 C6.66 3.33 7.32 3.66 8 4 C7.34 4.66 6.68 5.32 6 6 C3.97945196 4.35830472 1.97956942 2.69088222 0 1 C0 0.67 0 0.34 0 0 Z " fill="#5F441A" transform="translate(88,115)"/>
<path d="M0 0 C2.88437779 1.29299694 4.87219421 2.65941363 7 5 C5.35 5.33 3.7 5.66 2 6 C1.34 4.02 0.68 2.04 0 0 Z " fill="#4F3412" transform="translate(71,134)"/>
<path d="M0 0 C3.03336186 -0.22893297 5.97465051 -0.36475845 9 0 C11.0625 2 11.0625 2 12 4 C10.68 4 9.36 4 8 4 C8 3.34 8 2.68 8 2 C5.36 1.67 2.72 1.34 0 1 C0 0.67 0 0.34 0 0 Z " fill="#F7E399" transform="translate(138,116)"/>
<path d="M0 0 C3.63 0 7.26 0 11 0 C11 0.33 11 0.66 11 1 C10.39671875 1.04898438 9.7934375 1.09796875 9.171875 1.1484375 C7.97304687 1.26058594 7.97304687 1.26058594 6.75 1.375 C5.56664062 1.47941406 5.56664062 1.47941406 4.359375 1.5859375 C1.914123 2.01507113 0.15163097 2.78600638 -2 4 C-1.34 2.68 -0.68 1.36 0 0 Z " fill="#634719" transform="translate(192,114)"/>
<path d="M0 0 C0.66 0.33 1.32 0.66 2 1 C-0.64 2.98 -3.28 4.96 -6 7 C-6.33 6.01 -6.66 5.02 -7 4 C-5.68 3.67 -4.36 3.34 -3 3 C-3 2.34 -3 1.68 -3 1 C-2.01 0.67 -1.02 0.34 0 0 Z " fill="#573D16" transform="translate(137,113)"/>
<path d="M0 0 C3 3 3 3 3.1875 6.1875 C3.0946875 7.5796875 3.0946875 7.5796875 3 9 C2.34 9 1.68 9 1 9 C0.67 6.03 0.34 3.06 0 0 Z " fill="#F8E39A" transform="translate(150,63)"/>
<path d="M0 0 C0.33 0 0.66 0 1 0 C1 1.98 1 3.96 1 6 C-0.98 6.99 -0.98 6.99 -3 8 C-1.125 1.125 -1.125 1.125 0 0 Z " fill="#4A310F" transform="translate(153,76)"/>
<path d="M0 0 C-0.66 1.32 -1.32 2.64 -2 4 C-3.65 4 -5.3 4 -7 4 C-4.83989616 0.75984424 -3.8842653 0 0 0 Z " fill="#F4DD94" transform="translate(210,132)"/>
</svg>
